<?xml version="1.0" encoding="UTF-8" standalone="no"?>
<svg
   width="500"
   zoomAndPan="magnify"
   viewBox="0 0 375 374.999991"
   height="500"
   preserveAspectRatio="xMidYMid meet"
   version="1.0"
   id="svg235"
   sodipodi:docname="senzei-learning-stack-logo-white.svg"
   inkscape:version="1.3.1 (9b9bdc1480, 2023-11-25, custom)"
   xmlns:inkscape="http://www.inkscape.org/namespaces/inkscape"
   xmlns:sodipodi="http://sodipodi.sourceforge.net/DTD/sodipodi-0.dtd"
   xmlns="http://www.w3.org/2000/svg"
   xmlns:svg="http://www.w3.org/2000/svg">
  <sodipodi:namedview
     id="namedview235"
     pagecolor="#ffffff"
     bordercolor="#000000"
     borderopacity="0.25"
     inkscape:showpageshadow="2"
     inkscape:pageopacity="0.0"
     inkscape:pagecheckerboard="true"
     inkscape:deskcolor="#d1d1d1"
     inkscape:zoom="0.5734636"
     inkscape:cx="250.23384"
     inkscape:cy="250.23384"
     inkscape:window-width="954"
     inkscape:window-height="1003"
     inkscape:window-x="2882"
     inkscape:window-y="36"
     inkscape:window-maximized="0"
     inkscape:current-layer="svg235" />
  <defs
     id="defs192">
    <g
       id="g1" />
    <radialGradient
       gradientTransform="matrix(1, 0, 0, 1, 0.0000045, 0)"
       gradientUnits="userSpaceOnUse"
       r="530.330095"
       cx="0"
       id="05039f2a6a"
       cy="0"
       fx="0"
       fy="0">
      <stop
         stop-opacity="1"
         stop-color="rgb(69.644165%, 1.194763%, 58.702087%)"
         offset="0"
         id="stop1" />
      <stop
         stop-opacity="1"
         stop-color="rgb(69.412231%, 1.187134%, 58.557129%)"
         offset="0.0078125"
         id="stop2" />
      <stop
         stop-opacity="1"
         stop-color="rgb(69.258118%, 1.182556%, 58.460999%)"
         offset="0.0117188"
         id="stop3" />
      <stop
         stop-opacity="1"
         stop-color="rgb(69.102478%, 1.177979%, 58.364868%)"
         offset="0.015625"
         id="stop4" />
      <stop
         stop-opacity="1"
         stop-color="rgb(68.948364%, 1.173401%, 58.268738%)"
         offset="0.0195312"
         id="stop5" />
      <stop
         stop-opacity="1"
         stop-color="rgb(68.792725%, 1.168823%, 58.171082%)"
         offset="0.0234375"
         id="stop6" />
      <stop
         stop-opacity="1"
         stop-color="rgb(68.638611%, 1.16272%, 58.074951%)"
         offset="0.0273438"
         id="stop7" />
      <stop
         stop-opacity="1"
         stop-color="rgb(68.484497%, 1.158142%, 57.978821%)"
         offset="0.03125"
         id="stop8" />
      <stop
         stop-opacity="1"
         stop-color="rgb(68.328857%, 1.153564%, 57.88269%)"
         offset="0.0351562"
         id="stop9" />
      <stop
         stop-opacity="1"
         stop-color="rgb(68.174744%, 1.148987%, 57.785034%)"
         offset="0.0390625"
         id="stop10" />
      <stop
         stop-opacity="1"
         stop-color="rgb(68.019104%, 1.144409%, 57.688904%)"
         offset="0.0429688"
         id="stop11" />
      <stop
         stop-opacity="1"
         stop-color="rgb(67.86499%, 1.139832%, 57.592773%)"
         offset="0.046875"
         id="stop12" />
      <stop
         stop-opacity="1"
         stop-color="rgb(67.710876%, 1.135254%, 57.496643%)"
         offset="0.0507812"
         id="stop13" />
      <stop
         stop-opacity="1"
         stop-color="rgb(67.555237%, 1.130676%, 57.398987%)"
         offset="0.0546875"
         id="stop14" />
      <stop
         stop-opacity="1"
         stop-color="rgb(67.401123%, 1.126099%, 57.302856%)"
         offset="0.0585938"
         id="stop15" />
      <stop
         stop-opacity="1"
         stop-color="rgb(67.247009%, 1.121521%, 57.206726%)"
         offset="0.0625"
         id="stop16" />
      <stop
         stop-opacity="1"
         stop-color="rgb(67.09137%, 1.116943%, 57.110596%)"
         offset="0.0664062"
         id="stop17" />
      <stop
         stop-opacity="1"
         stop-color="rgb(66.937256%, 1.112366%, 57.012939%)"
         offset="0.0703125"
         id="stop18" />
      <stop
         stop-opacity="1"
         stop-color="rgb(66.781616%, 1.107788%, 56.916809%)"
         offset="0.0742188"
         id="stop19" />
      <stop
         stop-opacity="1"
         stop-color="rgb(66.627502%, 1.101685%, 56.820679%)"
         offset="0.078125"
         id="stop20" />
      <stop
         stop-opacity="1"
         stop-color="rgb(66.473389%, 1.097107%, 56.724548%)"
         offset="0.0820312"
         id="stop21" />
      <stop
         stop-opacity="1"
         stop-color="rgb(66.317749%, 1.092529%, 56.628418%)"
         offset="0.0859375"
         id="stop22" />
      <stop
         stop-opacity="1"
         stop-color="rgb(66.163635%, 1.087952%, 56.530762%)"
         offset="0.0898438"
         id="stop23" />
      <stop
         stop-opacity="1"
         stop-color="rgb(66.009521%, 1.083374%, 56.434631%)"
         offset="0.09375"
         id="stop24" />
      <stop
         stop-opacity="1"
         stop-color="rgb(65.853882%, 1.078796%, 56.338501%)"
         offset="0.0976562"
         id="stop25" />
      <stop
         stop-opacity="1"
         stop-color="rgb(65.699768%, 1.074219%, 56.242371%)"
         offset="0.101562"
         id="stop26" />
      <stop
         stop-opacity="1"
         stop-color="rgb(65.544128%, 1.069641%, 56.144714%)"
         offset="0.105469"
         id="stop27" />
      <stop
         stop-opacity="1"
         stop-color="rgb(65.390015%, 1.065063%, 56.048584%)"
         offset="0.109375"
         id="stop28" />
      <stop
         stop-opacity="1"
         stop-color="rgb(65.235901%, 1.060486%, 55.952454%)"
         offset="0.113281"
         id="stop29" />
      <stop
         stop-opacity="1"
         stop-color="rgb(65.080261%, 1.055908%, 55.856323%)"
         offset="0.117188"
         id="stop30" />
      <stop
         stop-opacity="1"
         stop-color="rgb(64.926147%, 1.051331%, 55.758667%)"
         offset="0.121094"
         id="stop31" />
      <stop
         stop-opacity="1"
         stop-color="rgb(64.772034%, 1.046753%, 55.662537%)"
         offset="0.125"
         id="stop32" />
      <stop
         stop-opacity="1"
         stop-color="rgb(64.616394%, 1.042175%, 55.566406%)"
         offset="0.128906"
         id="stop33" />
      <stop
         stop-opacity="1"
         stop-color="rgb(64.46228%, 1.036072%, 55.470276%)"
         offset="0.132812"
         id="stop34" />
      <stop
         stop-opacity="1"
         stop-color="rgb(64.306641%, 1.031494%, 55.374146%)"
         offset="0.136719"
         id="stop35" />
      <stop
         stop-opacity="1"
         stop-color="rgb(64.152527%, 1.026917%, 55.276489%)"
         offset="0.140625"
         id="stop36" />
      <stop
         stop-opacity="1"
         stop-color="rgb(63.998413%, 1.022339%, 55.180359%)"
         offset="0.144531"
         id="stop37" />
      <stop
         stop-opacity="1"
         stop-color="rgb(63.842773%, 1.017761%, 55.084229%)"
         offset="0.148438"
         id="stop38" />
      <stop
         stop-opacity="1"
         stop-color="rgb(63.68866%, 1.013184%, 54.988098%)"
         offset="0.152344"
         id="stop39" />
      <stop
         stop-opacity="1"
         stop-color="rgb(63.534546%, 1.008606%, 54.890442%)"
         offset="0.15625"
         id="stop40" />
      <stop
         stop-opacity="1"
         stop-color="rgb(63.378906%, 1.004028%, 54.794312%)"
         offset="0.160156"
         id="stop41" />
      <stop
         stop-opacity="1"
         stop-color="rgb(63.224792%, 0.999451%, 54.698181%)"
         offset="0.164062"
         id="stop42" />
      <stop
         stop-opacity="1"
         stop-color="rgb(63.069153%, 0.994873%, 54.602051%)"
         offset="0.167969"
         id="stop43" />
      <stop
         stop-opacity="1"
         stop-color="rgb(62.915039%, 0.990295%, 54.504395%)"
         offset="0.171875"
         id="stop44" />
      <stop
         stop-opacity="1"
         stop-color="rgb(62.760925%, 0.985718%, 54.408264%)"
         offset="0.175781"
         id="stop45" />
      <stop
         stop-opacity="1"
         stop-color="rgb(62.605286%, 0.98114%, 54.312134%)"
         offset="0.179688"
         id="stop46" />
      <stop
         stop-opacity="1"
         stop-color="rgb(62.451172%, 0.976562%, 54.216003%)"
         offset="0.183594"
         id="stop47" />
      <stop
         stop-opacity="1"
         stop-color="rgb(62.297058%, 0.970459%, 54.119873%)"
         offset="0.1875"
         id="stop48" />
      <stop
         stop-opacity="1"
         stop-color="rgb(62.141418%, 0.965881%, 54.022217%)"
         offset="0.191406"
         id="stop49" />
      <stop
         stop-opacity="1"
         stop-color="rgb(61.987305%, 0.961304%, 53.926086%)"
         offset="0.195312"
         id="stop50" />
      <stop
         stop-opacity="1"
         stop-color="rgb(61.831665%, 0.956726%, 53.829956%)"
         offset="0.199219"
         id="stop51" />
      <stop
         stop-opacity="1"
         stop-color="rgb(61.677551%, 0.952148%, 53.733826%)"
         offset="0.203125"
         id="stop52" />
      <stop
         stop-opacity="1"
         stop-color="rgb(61.523438%, 0.947571%, 53.636169%)"
         offset="0.207031"
         id="stop53" />
      <stop
         stop-opacity="1"
         stop-color="rgb(61.367798%, 0.942993%, 53.540039%)"
         offset="0.210938"
         id="stop54" />
      <stop
         stop-opacity="1"
         stop-color="rgb(61.213684%, 0.938416%, 53.443909%)"
         offset="0.214844"
         id="stop55" />
      <stop
         stop-opacity="1"
         stop-color="rgb(61.05957%, 0.933838%, 53.347778%)"
         offset="0.21875"
         id="stop56" />
      <stop
         stop-opacity="1"
         stop-color="rgb(60.903931%, 0.92926%, 53.250122%)"
         offset="0.222656"
         id="stop57" />
      <stop
         stop-opacity="1"
         stop-color="rgb(60.749817%, 0.924683%, 53.153992%)"
         offset="0.226562"
         id="stop58" />
      <stop
         stop-opacity="1"
         stop-color="rgb(60.594177%, 0.920105%, 53.057861%)"
         offset="0.230469"
         id="stop59" />
      <stop
         stop-opacity="1"
         stop-color="rgb(60.440063%, 0.915527%, 52.961731%)"
         offset="0.234375"
         id="stop60" />
      <stop
         stop-opacity="1"
         stop-color="rgb(60.28595%, 0.91095%, 52.865601%)"
         offset="0.238281"
         id="stop61" />
      <stop
         stop-opacity="1"
         stop-color="rgb(60.13031%, 0.904846%, 52.767944%)"
         offset="0.242188"
         id="stop62" />
      <stop
         stop-opacity="1"
         stop-color="rgb(59.976196%, 0.900269%, 52.671814%)"
         offset="0.246094"
         id="stop63" />
      <stop
         stop-opacity="1"
         stop-color="rgb(59.822083%, 0.895691%, 52.575684%)"
         offset="0.25"
         id="stop64" />
      <stop
         stop-opacity="1"
         stop-color="rgb(59.588623%, 0.889587%, 52.430725%)"
         offset="0.253906"
         id="stop65" />
      <stop
         stop-opacity="1"
         stop-color="rgb(59.280396%, 0.880432%, 52.238464%)"
         offset="0.261719"
         id="stop66" />
      <stop
         stop-opacity="1"
         stop-color="rgb(58.970642%, 0.871277%, 52.044678%)"
         offset="0.269531"
         id="stop67" />
      <stop
         stop-opacity="1"
         stop-color="rgb(58.660889%, 0.862122%, 51.852417%)"
         offset="0.277344"
         id="stop68" />
      <stop
         stop-opacity="1"
         stop-color="rgb(58.351135%, 0.852966%, 51.65863%)"
         offset="0.285156"
         id="stop69" />
      <stop
         stop-opacity="1"
         stop-color="rgb(58.042908%, 0.842285%, 51.46637%)"
         offset="0.292969"
         id="stop70" />
      <stop
         stop-opacity="1"
         stop-color="rgb(57.733154%, 0.83313%, 51.272583%)"
         offset="0.300781"
         id="stop71" />
      <stop
         stop-opacity="1"
         stop-color="rgb(57.423401%, 0.823975%, 51.080322%)"
         offset="0.308594"
         id="stop72" />
      <stop
         stop-opacity="1"
         stop-color="rgb(57.113647%, 0.814819%, 50.886536%)"
         offset="0.316406"
         id="stop73" />
      <stop
         stop-opacity="1"
         stop-color="rgb(56.80542%, 0.805664%, 50.694275%)"
         offset="0.324219"
         id="stop74" />
      <stop
         stop-opacity="1"
         stop-color="rgb(56.495667%, 0.796509%, 50.500488%)"
         offset="0.332031"
         id="stop75" />
      <stop
         stop-opacity="1"
         stop-color="rgb(56.185913%, 0.787354%, 50.308228%)"
         offset="0.339844"
         id="stop76" />
      <stop
         stop-opacity="1"
         stop-color="rgb(55.87616%, 0.776672%, 50.115967%)"
         offset="0.347656"
         id="stop77" />
      <stop
         stop-opacity="1"
         stop-color="rgb(55.567932%, 0.767517%, 49.92218%)"
         offset="0.355469"
         id="stop78" />
      <stop
         stop-opacity="1"
         stop-color="rgb(55.258179%, 0.758362%, 49.729919%)"
         offset="0.363281"
         id="stop79" />
      <stop
         stop-opacity="1"
         stop-color="rgb(54.948425%, 0.749207%, 49.536133%)"
         offset="0.371094"
         id="stop80" />
      <stop
         stop-opacity="1"
         stop-color="rgb(54.638672%, 0.740051%, 49.343872%)"
         offset="0.378906"
         id="stop81" />
      <stop
         stop-opacity="1"
         stop-color="rgb(54.330444%, 0.730896%, 49.150085%)"
         offset="0.386719"
         id="stop82" />
      <stop
         stop-opacity="1"
         stop-color="rgb(54.020691%, 0.721741%, 48.957825%)"
         offset="0.394531"
         id="stop83" />
      <stop
         stop-opacity="1"
         stop-color="rgb(53.710938%, 0.71106%, 48.764038%)"
         offset="0.402344"
         id="stop84" />
      <stop
         stop-opacity="1"
         stop-color="rgb(53.401184%, 0.701904%, 48.571777%)"
         offset="0.410156"
         id="stop85" />
      <stop
         stop-opacity="1"
         stop-color="rgb(53.092957%, 0.692749%, 48.377991%)"
         offset="0.417969"
         id="stop86" />
      <stop
         stop-opacity="1"
         stop-color="rgb(52.783203%, 0.683594%, 48.18573%)"
         offset="0.425781"
         id="stop87" />
      <stop
         stop-opacity="1"
         stop-color="rgb(52.47345%, 0.674438%, 47.991943%)"
         offset="0.433594"
         id="stop88" />
      <stop
         stop-opacity="1"
         stop-color="rgb(52.163696%, 0.665283%, 47.799683%)"
         offset="0.441406"
         id="stop89" />
      <stop
         stop-opacity="1"
         stop-color="rgb(51.855469%, 0.656128%, 47.607422%)"
         offset="0.449219"
         id="stop90" />
      <stop
         stop-opacity="1"
         stop-color="rgb(51.545715%, 0.645447%, 47.413635%)"
         offset="0.457031"
         id="stop91" />
      <stop
         stop-opacity="1"
         stop-color="rgb(51.235962%, 0.636292%, 47.221375%)"
         offset="0.464844"
         id="stop92" />
      <stop
         stop-opacity="1"
         stop-color="rgb(50.926208%, 0.627136%, 47.027588%)"
         offset="0.472656"
         id="stop93" />
      <stop
         stop-opacity="1"
         stop-color="rgb(50.617981%, 0.617981%, 46.835327%)"
         offset="0.480469"
         id="stop94" />
      <stop
         stop-opacity="1"
         stop-color="rgb(50.308228%, 0.608826%, 46.641541%)"
         offset="0.488281"
         id="stop95" />
      <stop
         stop-opacity="1"
         stop-color="rgb(49.998474%, 0.59967%, 46.44928%)"
         offset="0.496094"
         id="stop96" />
      <stop
         stop-opacity="1"
         stop-color="rgb(49.766541%, 0.592041%, 46.304321%)"
         offset="0.503906"
         id="stop97" />
      <stop
         stop-opacity="1"
         stop-color="rgb(49.612427%, 0.587463%, 46.208191%)"
         offset="0.507812"
         id="stop98" />
      <stop
         stop-opacity="1"
         stop-color="rgb(49.456787%, 0.582886%, 46.110535%)"
         offset="0.511719"
         id="stop99" />
      <stop
         stop-opacity="1"
         stop-color="rgb(49.302673%, 0.576782%, 46.014404%)"
         offset="0.515625"
         id="stop100" />
      <stop
         stop-opacity="1"
         stop-color="rgb(49.14856%, 0.572205%, 45.918274%)"
         offset="0.519531"
         id="stop101" />
      <stop
         stop-opacity="1"
         stop-color="rgb(48.99292%, 0.567627%, 45.822144%)"
         offset="0.523438"
         id="stop102" />
      <stop
         stop-opacity="1"
         stop-color="rgb(48.838806%, 0.563049%, 45.724487%)"
         offset="0.527344"
         id="stop103" />
      <stop
         stop-opacity="1"
         stop-color="rgb(48.683167%, 0.558472%, 45.628357%)"
         offset="0.53125"
         id="stop104" />
      <stop
         stop-opacity="1"
         stop-color="rgb(48.529053%, 0.553894%, 45.532227%)"
         offset="0.535156"
         id="stop105" />
      <stop
         stop-opacity="1"
         stop-color="rgb(48.374939%, 0.549316%, 45.436096%)"
         offset="0.539062"
         id="stop106" />
      <stop
         stop-opacity="1"
         stop-color="rgb(48.219299%, 0.544739%, 45.33844%)"
         offset="0.542969"
         id="stop107" />
      <stop
         stop-opacity="1"
         stop-color="rgb(48.065186%, 0.540161%, 45.24231%)"
         offset="0.546875"
         id="stop108" />
      <stop
         stop-opacity="1"
         stop-color="rgb(47.911072%, 0.535583%, 45.146179%)"
         offset="0.550781"
         id="stop109" />
      <stop
         stop-opacity="1"
         stop-color="rgb(47.755432%, 0.531006%, 45.050049%)"
         offset="0.554688"
         id="stop110" />
      <stop
         stop-opacity="1"
         stop-color="rgb(47.601318%, 0.526428%, 44.952393%)"
         offset="0.558594"
         id="stop111" />
      <stop
         stop-opacity="1"
         stop-color="rgb(47.445679%, 0.521851%, 44.856262%)"
         offset="0.5625"
         id="stop112" />
      <stop
         stop-opacity="1"
         stop-color="rgb(47.291565%, 0.515747%, 44.760132%)"
         offset="0.566406"
         id="stop113" />
      <stop
         stop-opacity="1"
         stop-color="rgb(47.137451%, 0.511169%, 44.664001%)"
         offset="0.570312"
         id="stop114" />
      <stop
         stop-opacity="1"
         stop-color="rgb(46.981812%, 0.506592%, 44.567871%)"
         offset="0.574219"
         id="stop115" />
      <stop
         stop-opacity="1"
         stop-color="rgb(46.827698%, 0.502014%, 44.470215%)"
         offset="0.578125"
         id="stop116" />
      <stop
         stop-opacity="1"
         stop-color="rgb(46.673584%, 0.497437%, 44.374084%)"
         offset="0.582031"
         id="stop117" />
      <stop
         stop-opacity="1"
         stop-color="rgb(46.517944%, 0.492859%, 44.277954%)"
         offset="0.585938"
         id="stop118" />
      <stop
         stop-opacity="1"
         stop-color="rgb(46.363831%, 0.488281%, 44.181824%)"
         offset="0.589844"
         id="stop119" />
      <stop
         stop-opacity="1"
         stop-color="rgb(46.208191%, 0.483704%, 44.084167%)"
         offset="0.59375"
         id="stop120" />
      <stop
         stop-opacity="1"
         stop-color="rgb(46.054077%, 0.479126%, 43.988037%)"
         offset="0.597656"
         id="stop121" />
      <stop
         stop-opacity="1"
         stop-color="rgb(45.899963%, 0.474548%, 43.891907%)"
         offset="0.601562"
         id="stop122" />
      <stop
         stop-opacity="1"
         stop-color="rgb(45.744324%, 0.469971%, 43.795776%)"
         offset="0.605469"
         id="stop123" />
      <stop
         stop-opacity="1"
         stop-color="rgb(45.59021%, 0.465393%, 43.69812%)"
         offset="0.609375"
         id="stop124" />
      <stop
         stop-opacity="1"
         stop-color="rgb(45.436096%, 0.460815%, 43.60199%)"
         offset="0.613281"
         id="stop125" />
      <stop
         stop-opacity="1"
         stop-color="rgb(45.280457%, 0.456238%, 43.505859%)"
         offset="0.617188"
         id="stop126" />
      <stop
         stop-opacity="1"
         stop-color="rgb(45.126343%, 0.450134%, 43.409729%)"
         offset="0.621094"
         id="stop127" />
      <stop
         stop-opacity="1"
         stop-color="rgb(44.970703%, 0.445557%, 43.313599%)"
         offset="0.625"
         id="stop128" />
      <stop
         stop-opacity="1"
         stop-color="rgb(44.73877%, 0.439453%, 43.16864%)"
         offset="0.628906"
         id="stop129" />
      <stop
         stop-opacity="1"
         stop-color="rgb(44.430542%, 0.430298%, 42.974854%)"
         offset="0.636719"
         id="stop130" />
      <stop
         stop-opacity="1"
         stop-color="rgb(44.120789%, 0.421143%, 42.782593%)"
         offset="0.644531"
         id="stop131" />
      <stop
         stop-opacity="1"
         stop-color="rgb(43.811035%, 0.411987%, 42.588806%)"
         offset="0.652344"
         id="stop132" />
      <stop
         stop-opacity="1"
         stop-color="rgb(43.501282%, 0.402832%, 42.396545%)"
         offset="0.660156"
         id="stop133" />
      <stop
         stop-opacity="1"
         stop-color="rgb(43.193054%, 0.392151%, 42.204285%)"
         offset="0.667969"
         id="stop134" />
      <stop
         stop-opacity="1"
         stop-color="rgb(42.883301%, 0.382996%, 42.010498%)"
         offset="0.675781"
         id="stop135" />
      <stop
         stop-opacity="1"
         stop-color="rgb(42.573547%, 0.37384%, 41.818237%)"
         offset="0.683594"
         id="stop136" />
      <stop
         stop-opacity="1"
         stop-color="rgb(42.263794%, 0.364685%, 41.624451%)"
         offset="0.691406"
         id="stop137" />
      <stop
         stop-opacity="1"
         stop-color="rgb(41.955566%, 0.35553%, 41.43219%)"
         offset="0.699219"
         id="stop138" />
      <stop
         stop-opacity="1"
         stop-color="rgb(41.645813%, 0.346375%, 41.238403%)"
         offset="0.707031"
         id="stop139" />
      <stop
         stop-opacity="1"
         stop-color="rgb(41.33606%, 0.337219%, 41.046143%)"
         offset="0.714844"
         id="stop140" />
      <stop
         stop-opacity="1"
         stop-color="rgb(41.026306%, 0.326538%, 40.852356%)"
         offset="0.722656"
         id="stop141" />
      <stop
         stop-opacity="1"
         stop-color="rgb(40.718079%, 0.317383%, 40.660095%)"
         offset="0.730469"
         id="stop142" />
      <stop
         stop-opacity="1"
         stop-color="rgb(40.408325%, 0.308228%, 40.466309%)"
         offset="0.738281"
         id="stop143" />
      <stop
         stop-opacity="1"
         stop-color="rgb(40.098572%, 0.299072%, 40.274048%)"
         offset="0.746094"
         id="stop144" />
      <stop
         stop-opacity="1"
         stop-color="rgb(39.866638%, 0.291443%, 40.129089%)"
         offset="0.753906"
         id="stop145" />
      <stop
         stop-opacity="1"
         stop-color="rgb(39.712524%, 0.286865%, 40.032959%)"
         offset="0.757812"
         id="stop146" />
      <stop
         stop-opacity="1"
         stop-color="rgb(39.556885%, 0.282288%, 39.935303%)"
         offset="0.761719"
         id="stop147" />
      <stop
         stop-opacity="1"
         stop-color="rgb(39.402771%, 0.27771%, 39.839172%)"
         offset="0.765625"
         id="stop148" />
      <stop
         stop-opacity="1"
         stop-color="rgb(39.248657%, 0.273132%, 39.743042%)"
         offset="0.769531"
         id="stop149" />
      <stop
         stop-opacity="1"
         stop-color="rgb(39.093018%, 0.268555%, 39.646912%)"
         offset="0.773438"
         id="stop150" />
      <stop
         stop-opacity="1"
         stop-color="rgb(38.938904%, 0.263977%, 39.550781%)"
         offset="0.777344"
         id="stop151" />
      <stop
         stop-opacity="1"
         stop-color="rgb(38.783264%, 0.259399%, 39.453125%)"
         offset="0.78125"
         id="stop152" />
      <stop
         stop-opacity="1"
         stop-color="rgb(38.62915%, 0.253296%, 39.356995%)"
         offset="0.785156"
         id="stop153" />
      <stop
         stop-opacity="1"
         stop-color="rgb(38.475037%, 0.248718%, 39.260864%)"
         offset="0.789062"
         id="stop154" />
      <stop
         stop-opacity="1"
         stop-color="rgb(38.319397%, 0.244141%, 39.164734%)"
         offset="0.792969"
         id="stop155" />
      <stop
         stop-opacity="1"
         stop-color="rgb(38.165283%, 0.239563%, 39.067078%)"
         offset="0.796875"
         id="stop156" />
      <stop
         stop-opacity="1"
         stop-color="rgb(38.011169%, 0.234985%, 38.970947%)"
         offset="0.800781"
         id="stop157" />
      <stop
         stop-opacity="1"
         stop-color="rgb(37.85553%, 0.230408%, 38.874817%)"
         offset="0.804688"
         id="stop158" />
      <stop
         stop-opacity="1"
         stop-color="rgb(37.701416%, 0.22583%, 38.778687%)"
         offset="0.808594"
         id="stop159" />
      <stop
         stop-opacity="1"
         stop-color="rgb(37.545776%, 0.221252%, 38.68103%)"
         offset="0.8125"
         id="stop160" />
      <stop
         stop-opacity="1"
         stop-color="rgb(37.313843%, 0.215149%, 38.537598%)"
         offset="0.816406"
         id="stop161" />
      <stop
         stop-opacity="1"
         stop-color="rgb(37.005615%, 0.205994%, 38.343811%)"
         offset="0.824219"
         id="stop162" />
      <stop
         stop-opacity="1"
         stop-color="rgb(36.695862%, 0.195312%, 38.15155%)"
         offset="0.832031"
         id="stop163" />
      <stop
         stop-opacity="1"
         stop-color="rgb(36.386108%, 0.186157%, 37.957764%)"
         offset="0.839844"
         id="stop164" />
      <stop
         stop-opacity="1"
         stop-color="rgb(36.076355%, 0.177002%, 37.765503%)"
         offset="0.847656"
         id="stop165" />
      <stop
         stop-opacity="1"
         stop-color="rgb(35.768127%, 0.167847%, 37.571716%)"
         offset="0.855469"
         id="stop166" />
      <stop
         stop-opacity="1"
         stop-color="rgb(35.458374%, 0.158691%, 37.379456%)"
         offset="0.863281"
         id="stop167" />
      <stop
         stop-opacity="1"
         stop-color="rgb(35.148621%, 0.149536%, 37.185669%)"
         offset="0.871094"
         id="stop168" />
      <stop
         stop-opacity="1"
         stop-color="rgb(34.916687%, 0.141907%, 37.04071%)"
         offset="0.878906"
         id="stop169" />
      <stop
         stop-opacity="1"
         stop-color="rgb(34.762573%, 0.137329%, 36.94458%)"
         offset="0.882812"
         id="stop170" />
      <stop
         stop-opacity="1"
         stop-color="rgb(34.606934%, 0.132751%, 36.84845%)"
         offset="0.886719"
         id="stop171" />
      <stop
         stop-opacity="1"
         stop-color="rgb(34.45282%, 0.128174%, 36.752319%)"
         offset="0.890625"
         id="stop172" />
      <stop
         stop-opacity="1"
         stop-color="rgb(34.298706%, 0.12207%, 36.656189%)"
         offset="0.894531"
         id="stop173" />
      <stop
         stop-opacity="1"
         stop-color="rgb(34.143066%, 0.117493%, 36.558533%)"
         offset="0.898438"
         id="stop174" />
      <stop
         stop-opacity="1"
         stop-color="rgb(33.988953%, 0.112915%, 36.462402%)"
         offset="0.902344"
         id="stop175" />
      <stop
         stop-opacity="1"
         stop-color="rgb(33.833313%, 0.108337%, 36.366272%)"
         offset="0.90625"
         id="stop176" />
      <stop
         stop-opacity="1"
         stop-color="rgb(33.601379%, 0.102234%, 36.221313%)"
         offset="0.910156"
         id="stop177" />
      <stop
         stop-opacity="1"
         stop-color="rgb(33.293152%, 0.0930786%, 36.029053%)"
         offset="0.917969"
         id="stop178" />
      <stop
         stop-opacity="1"
         stop-color="rgb(32.983398%, 0.0839233%, 35.835266%)"
         offset="0.925781"
         id="stop179" />
      <stop
         stop-opacity="1"
         stop-color="rgb(32.673645%, 0.0747681%, 35.643005%)"
         offset="0.933594"
         id="stop180" />
      <stop
         stop-opacity="1"
         stop-color="rgb(32.441711%, 0.0671387%, 35.498047%)"
         offset="0.941406"
         id="stop181" />
      <stop
         stop-opacity="1"
         stop-color="rgb(32.287598%, 0.062561%, 35.401917%)"
         offset="0.945312"
         id="stop182" />
      <stop
         stop-opacity="1"
         stop-color="rgb(32.131958%, 0.0564575%, 35.30426%)"
         offset="0.949219"
         id="stop183" />
      <stop
         stop-opacity="1"
         stop-color="rgb(31.977844%, 0.0518799%, 35.20813%)"
         offset="0.953125"
         id="stop184" />
      <stop
         stop-opacity="1"
         stop-color="rgb(31.745911%, 0.0457764%, 35.063171%)"
         offset="0.957031"
         id="stop185" />
      <stop
         stop-opacity="1"
         stop-color="rgb(31.436157%, 0.0366211%, 34.870911%)"
         offset="0.964844"
         id="stop186" />
      <stop
         stop-opacity="1"
         stop-color="rgb(31.204224%, 0.0289917%, 34.725952%)"
         offset="0.972656"
         id="stop187" />
      <stop
         stop-opacity="1"
         stop-color="rgb(31.05011%, 0.0244141%, 34.629822%)"
         offset="0.976562"
         id="stop188" />
      <stop
         stop-opacity="1"
         stop-color="rgb(30.818176%, 0.0183105%, 34.484863%)"
         offset="0.980469"
         id="stop189" />
      <stop
         stop-opacity="1"
         stop-color="rgb(30.586243%, 0.0106812%, 34.339905%)"
         offset="0.988281"
         id="stop190" />
      <stop
         stop-opacity="1"
         stop-color="rgb(30.352783%, 0.00457764%, 34.194946%)"
         offset="0.992188"
         id="stop191" />
      <stop
         stop-opacity="1"
         stop-color="rgb(30.198669%, 0%, 34.098816%)"
         offset="1"
         id="stop192" />
    </radialGradient>
    <clipPath
       id="92b1d5be0b">
      <path
         d="M 125.914062 70 L 248.914062 70 L 248.914062 199 L 125.914062 199 Z M 125.914062 70 "
         clip-rule="nonzero"
         id="path192" />
    </clipPath>
  </defs>
  <g
     clip-path="url(#92b1d5be0b)"
     id="g193">
    <path
       fill="#ffffff"
       d="M 230.851562 128.550781 L 230.851562 166.304688 C 230.851562 172.5 227.730469 177.8125 222.316406 180.824219 C 207.816406 188.898438 167.164062 188.898438 152.664062 180.824219 C 151.804688 180.347656 151.003906 179.808594 150.265625 179.222656 L 144.191406 189.746094 C 145.019531 190.324219 145.886719 190.871094 146.789062 191.371094 C 165.011719 201.519531 209.964844 201.519531 228.1875 191.371094 C 237.425781 186.230469 242.921875 176.878906 242.921875 166.304688 L 242.921875 155.699219 L 244.265625 160.714844 C 247.007812 160.097656 249.066406 157.640625 249.066406 154.722656 L 249.066406 148.277344 C 249.066406 144.902344 246.515625 141.414062 243.136719 141.414062 L 242.722656 124.703125 C 242.460938 113.925781 228.175781 111.03125 218.789062 109.019531 C 202.332031 105.496094 188.304688 111.859375 194.066406 97.523438 C 212.957031 104.847656 216.632812 84.503906 228.992188 75.695312 C 221.765625 69.992188 212.023438 68.605469 203.492188 72.074219 C 194.957031 75.539062 188.941406 83.320312 187.734375 92.453125 C 194.351562 84.789062 203.492188 79.746094 213.507812 78.230469 C 200.769531 81.984375 195.132812 88.667969 188.628906 99.503906 C 171.003906 136.695312 225.261719 107.726562 230.851562 128.550781 M 180.035156 145.054688 C 178.890625 147.058594 176.734375 148.410156 174.261719 148.410156 C 170.589844 148.410156 167.613281 145.433594 167.613281 141.761719 C 167.613281 139.917969 168.367188 138.246094 169.582031 137.042969 C 169.015625 136.96875 168.4375 136.929688 167.851562 136.929688 C 160.566406 136.929688 154.660156 142.835938 154.660156 150.121094 C 154.660156 157.40625 160.566406 163.3125 167.851562 163.3125 C 175.136719 163.3125 181.042969 157.40625 181.042969 150.121094 C 181.042969 148.328125 180.6875 146.617188 180.035156 145.054688 Z M 207.125 136.929688 C 199.839844 136.929688 193.933594 142.835938 193.933594 150.121094 C 193.933594 157.40625 199.839844 163.3125 207.125 163.3125 C 214.410156 163.3125 220.316406 157.40625 220.316406 150.121094 C 220.316406 148.890625 220.148438 147.703125 219.832031 146.574219 C 218.640625 147.710938 217.023438 148.410156 215.246094 148.410156 C 211.574219 148.410156 208.597656 145.433594 208.597656 141.761719 C 208.597656 140.054688 209.246094 138.496094 210.304688 137.316406 C 209.289062 137.066406 208.222656 136.929688 207.125 136.929688 Z M 179.132812 172.175781 C 184.40625 174.75 190.570312 174.75 195.847656 172.175781 C 193.761719 174.625 190.707031 176.039062 187.488281 176.039062 C 184.273438 176.039062 181.214844 174.625 179.132812 172.175781 Z M 181.832031 106.25 C 173.261719 106.476562 164.402344 107.257812 156.1875 109.019531 C 146.796875 111.027344 135.261719 115.011719 132.46875 125.421875 L 132.054688 142.132812 L 132.054688 147.300781 L 130.710938 142.28125 C 127.972656 142.902344 125.914062 145.359375 125.914062 148.277344 L 125.914062 154.722656 C 125.914062 158.101562 128.675781 160.867188 132.054688 160.867188 L 132.054688 166.308594 C 132.054688 175.820312 136.507812 184.34375 144.128906 189.707031 L 144.128906 128.550781 C 145.664062 122.828125 160.332031 119.488281 177.1875 118.535156 C 179.957031 121.957031 184.050781 124.128906 188.535156 124.441406 C 181.96875 120.992188 179.070312 113.136719 181.832031 106.25 Z M 181.832031 106.25 "
       fill-opacity="1"
       fill-rule="evenodd"
       id="path193" />
  </g>
  <g
     fill="#ffffff"
     fill-opacity="1"
     id="g196">
    <g
       transform="translate(65.246623, 264.020542)"
       id="g195">
      <g
         id="g194">
        <path
           d="M 4.0625 0 L 4.0625 -8.25 L 25.171875 -8.25 L 27.09375 -10.171875 L 27.09375 -14.671875 L 25.171875 -16.59375 L 8.578125 -16.59375 L 2.46875 -22.75 L 2.46875 -34.40625 L 8.578125 -40.515625 L 35.0625 -40.515625 L 35.0625 -32.265625 L 14.515625 -32.265625 L 12.59375 -30.34375 L 12.59375 -26.765625 L 14.515625 -24.84375 L 31.109375 -24.84375 L 37.21875 -18.75 L 37.21875 -6.09375 L 31.109375 0 Z M 4.0625 0 "
           id="path194" />
      </g>
    </g>
  </g>
  <g
     fill="#ffffff"
     fill-opacity="1"
     id="g199">
    <g
       transform="translate(110.425647, 264.020542)"
       id="g198">
      <g
         id="g197">
        <path
           d="M 3.84375 0 L 3.84375 -40.515625 L 34.625 -40.515625 L 34.625 -32.15625 L 14.125 -32.15625 L 14.125 -24.6875 L 32.59375 -24.6875 L 32.59375 -16.9375 L 14.125 -16.9375 L 14.125 -8.359375 L 34.625 -8.359375 L 34.625 0 Z M 3.84375 0 "
           id="path196" />
      </g>
    </g>
  </g>
  <g
     fill="#ffffff"
     fill-opacity="1"
     id="g202">
    <g
       transform="translate(153.296282, 264.020542)"
       id="g201">
      <g
         id="g200">
        <path
           d="M 3.84375 0 L 3.84375 -40.515625 L 15.0625 -40.515625 L 28.6875 -16.21875 L 28.6875 -40.515625 L 38.265625 -40.515625 L 38.265625 0 L 28.6875 0 L 15.390625 -23.75 L 13.40625 -23.75 L 13.40625 0 Z M 3.84375 0 "
           id="path199" />
      </g>
    </g>
  </g>
  <g
     fill="#ffffff"
     fill-opacity="1"
     id="g205">
    <g
       transform="translate(200.893622, 264.020542)"
       id="g204">
      <g
         id="g203">
        <path
           d="M 2.46875 0 L 2.46875 -8.625 L 21.15625 -30.234375 L 21.15625 -32.15625 L 3.796875 -32.15625 L 3.796875 -40.515625 L 34.90625 -40.515625 L 34.90625 -31.875 L 16.265625 -10.28125 L 16.265625 -8.359375 L 34.90625 -8.359375 L 34.90625 0 Z M 2.46875 0 "
           id="path202" />
      </g>
    </g>
  </g>
  <g
     fill="#ffffff"
     fill-opacity="1"
     id="g208">
    <g
       transform="translate(243.764258, 264.020542)"
       id="g207">
      <g
         id="g206">
        <path
           d="M 3.84375 0 L 3.84375 -40.515625 L 34.625 -40.515625 L 34.625 -32.15625 L 14.125 -32.15625 L 14.125 -24.6875 L 32.59375 -24.6875 L 32.59375 -16.9375 L 14.125 -16.9375 L 14.125 -8.359375 L 34.625 -8.359375 L 34.625 0 Z M 3.84375 0 "
           id="path205" />
      </g>
    </g>
  </g>
  <g
     fill="#ffffff"
     fill-opacity="1"
     id="g211">
    <g
       transform="translate(286.634893, 264.020542)"
       id="g210">
      <g
         id="g209">
        <path
           d="M 2.203125 0 L 2.203125 -7.75 L 6.703125 -7.75 L 6.59375 -32.765625 L 2.203125 -32.765625 L 2.203125 -40.515625 L 20.890625 -40.515625 L 20.890625 -32.765625 L 16.4375 -32.765625 L 16.328125 -7.75 L 20.890625 -7.75 L 20.890625 0 Z M 2.203125 0 "
           id="path208" />
      </g>
    </g>
  </g>
  <g
     fill="#ffffff"
     fill-opacity="1"
     id="g214">
    <g
       transform="translate(102.11105, 294.458571)"
       id="g213">
      <g
         id="g212">
        <path
           d="M 2.15625 0 C 2.007812 0 1.882812 -0.0507812 1.78125 -0.15625 C 1.675781 -0.257812 1.625 -0.390625 1.625 -0.546875 L 1.625 -14.84375 C 1.625 -15 1.675781 -15.128906 1.78125 -15.234375 C 1.882812 -15.335938 2.007812 -15.390625 2.15625 -15.390625 L 4.640625 -15.390625 C 4.785156 -15.390625 4.910156 -15.335938 5.015625 -15.234375 C 5.117188 -15.128906 5.171875 -15 5.171875 -14.84375 L 5.171875 -2.96875 L 11.984375 -2.96875 C 12.140625 -2.96875 12.269531 -2.914062 12.375 -2.8125 C 12.476562 -2.707031 12.53125 -2.578125 12.53125 -2.421875 L 12.53125 -0.546875 C 12.53125 -0.390625 12.476562 -0.257812 12.375 -0.15625 C 12.269531 -0.0507812 12.140625 0 11.984375 0 Z M 2.15625 0 "
           id="path211" />
      </g>
    </g>
  </g>
  <g
     fill="#ffffff"
     fill-opacity="1"
     id="g217">
    <g
       transform="translate(123.567095, 294.458571)"
       id="g216">
      <g
         id="g215">
        <path
           d="M 2.15625 0 C 2.007812 0 1.882812 -0.0507812 1.78125 -0.15625 C 1.675781 -0.257812 1.625 -0.390625 1.625 -0.546875 L 1.625 -14.84375 C 1.625 -15 1.675781 -15.128906 1.78125 -15.234375 C 1.882812 -15.335938 2.007812 -15.390625 2.15625 -15.390625 L 12.140625 -15.390625 C 12.296875 -15.390625 12.425781 -15.335938 12.53125 -15.234375 C 12.632812 -15.128906 12.6875 -15 12.6875 -14.84375 L 12.6875 -13.078125 C 12.6875 -12.921875 12.632812 -12.789062 12.53125 -12.6875 C 12.425781 -12.582031 12.296875 -12.53125 12.140625 -12.53125 L 5.015625 -12.53125 L 5.015625 -9.09375 L 11.65625 -9.09375 C 11.8125 -9.09375 11.941406 -9.039062 12.046875 -8.9375 C 12.148438 -8.84375 12.203125 -8.710938 12.203125 -8.546875 L 12.203125 -6.921875 C 12.203125 -6.773438 12.148438 -6.644531 12.046875 -6.53125 C 11.941406 -6.425781 11.8125 -6.375 11.65625 -6.375 L 5.015625 -6.375 L 5.015625 -2.859375 L 12.3125 -2.859375 C 12.46875 -2.859375 12.597656 -2.804688 12.703125 -2.703125 C 12.804688 -2.597656 12.859375 -2.46875 12.859375 -2.3125 L 12.859375 -0.546875 C 12.859375 -0.390625 12.804688 -0.257812 12.703125 -0.15625 C 12.597656 -0.0507812 12.46875 0 12.3125 0 Z M 2.15625 0 "
           id="path214" />
      </g>
    </g>
  </g>
  <g
     fill="#ffffff"
     fill-opacity="1"
     id="g220">
    <g
       transform="translate(145.968348, 294.458571)"
       id="g219">
      <g
         id="g218">
        <path
           d="M 0.71875 0 C 0.59375 0 0.484375 -0.046875 0.390625 -0.140625 C 0.304688 -0.234375 0.265625 -0.34375 0.265625 -0.46875 C 0.265625 -0.539062 0.269531 -0.601562 0.28125 -0.65625 L 5.515625 -14.796875 C 5.554688 -14.953125 5.644531 -15.085938 5.78125 -15.203125 C 5.914062 -15.328125 6.097656 -15.390625 6.328125 -15.390625 L 9.140625 -15.390625 C 9.378906 -15.390625 9.5625 -15.328125 9.6875 -15.203125 C 9.820312 -15.085938 9.921875 -14.953125 9.984375 -14.796875 L 15.1875 -0.65625 C 15.21875 -0.601562 15.234375 -0.539062 15.234375 -0.46875 C 15.234375 -0.34375 15.1875 -0.234375 15.09375 -0.140625 C 15 -0.046875 14.882812 0 14.75 0 L 12.4375 0 C 12.238281 0 12.085938 -0.0507812 11.984375 -0.15625 C 11.878906 -0.257812 11.8125 -0.351562 11.78125 -0.4375 L 10.84375 -2.90625 L 4.640625 -2.90625 L 3.71875 -0.4375 C 3.675781 -0.351562 3.601562 -0.257812 3.5 -0.15625 C 3.40625 -0.0507812 3.25 0 3.03125 0 Z M 5.46875 -5.734375 L 10 -5.734375 L 7.734375 -12.046875 Z M 5.46875 -5.734375 "
           id="path217" />
      </g>
    </g>
  </g>
  <g
     fill="#ffffff"
     fill-opacity="1"
     id="g223">
    <g
       transform="translate(169.974258, 294.458571)"
       id="g222">
      <g
         id="g221">
        <path
           d="M 2.15625 0 C 2.007812 0 1.882812 -0.0507812 1.78125 -0.15625 C 1.675781 -0.257812 1.625 -0.390625 1.625 -0.546875 L 1.625 -14.84375 C 1.625 -15 1.675781 -15.128906 1.78125 -15.234375 C 1.882812 -15.335938 2.007812 -15.390625 2.15625 -15.390625 L 8 -15.390625 C 9.832031 -15.390625 11.273438 -14.96875 12.328125 -14.125 C 13.390625 -13.28125 13.921875 -12.066406 13.921875 -10.484375 C 13.921875 -9.410156 13.660156 -8.515625 13.140625 -7.796875 C 12.628906 -7.085938 11.941406 -6.554688 11.078125 -6.203125 L 14.203125 -0.703125 C 14.242188 -0.617188 14.265625 -0.539062 14.265625 -0.46875 C 14.265625 -0.34375 14.21875 -0.234375 14.125 -0.140625 C 14.03125 -0.046875 13.925781 0 13.8125 0 L 11.34375 0 C 11.082031 0 10.882812 -0.0664062 10.75 -0.203125 C 10.613281 -0.347656 10.519531 -0.476562 10.46875 -0.59375 L 7.78125 -5.625 L 5.125 -5.625 L 5.125 -0.546875 C 5.125 -0.390625 5.070312 -0.257812 4.96875 -0.15625 C 4.863281 -0.0507812 4.734375 0 4.578125 0 Z M 5.125 -8.421875 L 7.953125 -8.421875 C 8.742188 -8.421875 9.332031 -8.601562 9.71875 -8.96875 C 10.113281 -9.332031 10.3125 -9.847656 10.3125 -10.515625 C 10.3125 -11.171875 10.117188 -11.6875 9.734375 -12.0625 C 9.359375 -12.445312 8.765625 -12.640625 7.953125 -12.640625 L 5.125 -12.640625 Z M 5.125 -8.421875 "
           id="path220" />
      </g>
    </g>
  </g>
  <g
     fill="#ffffff"
     fill-opacity="1"
     id="g226">
    <g
       transform="translate(193.49657, 294.458571)"
       id="g225">
      <g
         id="g224">
        <path
           d="M 2.15625 0 C 2.007812 0 1.882812 -0.0507812 1.78125 -0.15625 C 1.675781 -0.257812 1.625 -0.390625 1.625 -0.546875 L 1.625 -14.84375 C 1.625 -15 1.675781 -15.128906 1.78125 -15.234375 C 1.882812 -15.335938 2.007812 -15.390625 2.15625 -15.390625 L 4.171875 -15.390625 C 4.390625 -15.390625 4.550781 -15.335938 4.65625 -15.234375 C 4.757812 -15.128906 4.828125 -15.050781 4.859375 -15 L 10.703125 -5.84375 L 10.703125 -14.84375 C 10.703125 -15 10.753906 -15.128906 10.859375 -15.234375 C 10.960938 -15.335938 11.09375 -15.390625 11.25 -15.390625 L 13.5 -15.390625 C 13.65625 -15.390625 13.785156 -15.335938 13.890625 -15.234375 C 13.992188 -15.128906 14.046875 -15 14.046875 -14.84375 L 14.046875 -0.546875 C 14.046875 -0.398438 13.992188 -0.269531 13.890625 -0.15625 C 13.785156 -0.0507812 13.65625 0 13.5 0 L 11.46875 0 C 11.25 0 11.085938 -0.0507812 10.984375 -0.15625 C 10.890625 -0.269531 10.828125 -0.347656 10.796875 -0.390625 L 4.96875 -9.25 L 4.96875 -0.546875 C 4.96875 -0.390625 4.914062 -0.257812 4.8125 -0.15625 C 4.707031 -0.0507812 4.578125 0 4.421875 0 Z M 2.15625 0 "
           id="path223" />
      </g>
    </g>
  </g>
  <g
     fill="#ffffff"
     fill-opacity="1"
     id="g229">
    <g
       transform="translate(217.700316, 294.458571)"
       id="g228">
      <g
         id="g227">
        <path
           d="M 2.15625 0 C 2.007812 0 1.882812 -0.0507812 1.78125 -0.15625 C 1.675781 -0.257812 1.625 -0.390625 1.625 -0.546875 L 1.625 -14.84375 C 1.625 -15 1.675781 -15.128906 1.78125 -15.234375 C 1.882812 -15.335938 2.007812 -15.390625 2.15625 -15.390625 L 4.6875 -15.390625 C 4.832031 -15.390625 4.953125 -15.335938 5.046875 -15.234375 C 5.148438 -15.128906 5.203125 -15 5.203125 -14.84375 L 5.203125 -0.546875 C 5.203125 -0.390625 5.148438 -0.257812 5.046875 -0.15625 C 4.953125 -0.0507812 4.832031 0 4.6875 0 Z M 2.15625 0 "
           id="path226" />
      </g>
    </g>
  </g>
  <g
     fill="#ffffff"
     fill-opacity="1"
     id="g232">
    <g
       transform="translate(233.067467, 294.458571)"
       id="g231">
      <g
         id="g230">
        <path
           d="M 2.15625 0 C 2.007812 0 1.882812 -0.0507812 1.78125 -0.15625 C 1.675781 -0.257812 1.625 -0.390625 1.625 -0.546875 L 1.625 -14.84375 C 1.625 -15 1.675781 -15.128906 1.78125 -15.234375 C 1.882812 -15.335938 2.007812 -15.390625 2.15625 -15.390625 L 4.171875 -15.390625 C 4.390625 -15.390625 4.550781 -15.335938 4.65625 -15.234375 C 4.757812 -15.128906 4.828125 -15.050781 4.859375 -15 L 10.703125 -5.84375 L 10.703125 -14.84375 C 10.703125 -15 10.753906 -15.128906 10.859375 -15.234375 C 10.960938 -15.335938 11.09375 -15.390625 11.25 -15.390625 L 13.5 -15.390625 C 13.65625 -15.390625 13.785156 -15.335938 13.890625 -15.234375 C 13.992188 -15.128906 14.046875 -15 14.046875 -14.84375 L 14.046875 -0.546875 C 14.046875 -0.398438 13.992188 -0.269531 13.890625 -0.15625 C 13.785156 -0.0507812 13.65625 0 13.5 0 L 11.46875 0 C 11.25 0 11.085938 -0.0507812 10.984375 -0.15625 C 10.890625 -0.269531 10.828125 -0.347656 10.796875 -0.390625 L 4.96875 -9.25 L 4.96875 -0.546875 C 4.96875 -0.390625 4.914062 -0.257812 4.8125 -0.15625 C 4.707031 -0.0507812 4.578125 0 4.421875 0 Z M 2.15625 0 "
           id="path229" />
      </g>
    </g>
  </g>
  <g
     fill="#ffffff"
     fill-opacity="1"
     id="g235">
    <g
       transform="translate(257.271221, 294.458571)"
       id="g234">
      <g
         id="g233">
        <path
           d="M 7.796875 0.21875 C 6.421875 0.21875 5.242188 -0.0078125 4.265625 -0.46875 C 3.296875 -0.9375 2.539062 -1.613281 2 -2.5 C 1.46875 -3.382812 1.179688 -4.457031 1.140625 -5.71875 C 1.128906 -6.34375 1.125 -7.015625 1.125 -7.734375 C 1.125 -8.453125 1.128906 -9.132812 1.140625 -9.78125 C 1.179688 -11.007812 1.46875 -12.054688 2 -12.921875 C 2.539062 -13.785156 3.304688 -14.445312 4.296875 -14.90625 C 5.285156 -15.375 6.453125 -15.609375 7.796875 -15.609375 C 8.890625 -15.609375 9.84375 -15.46875 10.65625 -15.1875 C 11.476562 -14.914062 12.171875 -14.554688 12.734375 -14.109375 C 13.304688 -13.660156 13.734375 -13.171875 14.015625 -12.640625 C 14.296875 -12.109375 14.445312 -11.597656 14.46875 -11.109375 C 14.46875 -10.972656 14.421875 -10.859375 14.328125 -10.765625 C 14.242188 -10.679688 14.128906 -10.640625 13.984375 -10.640625 L 11.25 -10.640625 C 11.101562 -10.640625 10.988281 -10.664062 10.90625 -10.71875 C 10.832031 -10.78125 10.765625 -10.867188 10.703125 -10.984375 C 10.597656 -11.234375 10.429688 -11.5 10.203125 -11.78125 C 9.984375 -12.0625 9.679688 -12.289062 9.296875 -12.46875 C 8.921875 -12.65625 8.421875 -12.75 7.796875 -12.75 C 6.878906 -12.75 6.148438 -12.503906 5.609375 -12.015625 C 5.078125 -11.535156 4.789062 -10.753906 4.75 -9.671875 C 4.707031 -8.410156 4.707031 -7.128906 4.75 -5.828125 C 4.789062 -4.703125 5.085938 -3.890625 5.640625 -3.390625 C 6.203125 -2.890625 6.9375 -2.640625 7.84375 -2.640625 C 8.445312 -2.640625 8.984375 -2.742188 9.453125 -2.953125 C 9.929688 -3.171875 10.3125 -3.5 10.59375 -3.9375 C 10.875 -4.382812 11.015625 -4.960938 11.015625 -5.671875 L 11.015625 -6.21875 L 8.625 -6.21875 C 8.46875 -6.21875 8.335938 -6.269531 8.234375 -6.375 C 8.140625 -6.488281 8.09375 -6.617188 8.09375 -6.765625 L 8.09375 -8.171875 C 8.09375 -8.335938 8.140625 -8.472656 8.234375 -8.578125 C 8.335938 -8.679688 8.46875 -8.734375 8.625 -8.734375 L 14.03125 -8.734375 C 14.1875 -8.734375 14.316406 -8.679688 14.421875 -8.578125 C 14.523438 -8.472656 14.578125 -8.335938 14.578125 -8.171875 L 14.578125 -5.78125 C 14.578125 -4.519531 14.296875 -3.441406 13.734375 -2.546875 C 13.179688 -1.648438 12.394531 -0.960938 11.375 -0.484375 C 10.351562 -0.015625 9.160156 0.21875 7.796875 0.21875 Z M 7.796875 0.21875 "
           id="path232" />
      </g>
    </g>
  </g>
</svg>
